<svg id="eoXq4cW0FVB1" xmlns="http://www.w3.org/2000/svg" xmlns:xlink="http://www.w3.org/1999/xlink" viewBox="0 0 64 64" shape-rendering="geometricPrecision" text-rendering="geometricPrecision" style="background-color:transparent"><path d="M3.093408,19.927586c2.317161-2.770993,52.656946,2.399296,55.727733,5.908761c3.215301,3.674624,5.614996,14.409825,2.201304,21.08617s-53.294715-3.574617-54.685011-4.750181c-1.514609-1.280677-5.561187-19.473757-3.244026-22.24475Z" transform="translate(.000003 0.000003)" fill="#d9dce2" stroke-width="0.5"/><path d="M60,4h-12c0-2.211-1.789-4-4-4s-4,1.789-4,4h-16c0-2.211-1.789-4-4-4s-4,1.789-4,4L4,4C1.789,4,0,5.789,0,8v52c0,2.211,1.789,4,4,4h56c2.211,0,4-1.789,4-4v-52c0-2.211-1.789-4-4-4ZM8,12h8c0,2.211,1.789,4,4,4s4-1.789,4-4h16c0,2.211,1.789,4,4,4s4-1.789,4-4h8v8h-48v-8Z" transform="matrix(.672539 0 0 0.659143 10.855894 10.530281)" fill="#7e45db"/><line x1="0.281457" y1="1.456375" x2="6.199675" y2="7.637129" transform="matrix(1.011908 0 0 1.005067 23.199627 34.496513)" fill="none" stroke="#d9dce2" stroke-width="3" stroke-linecap="round" stroke-linejoin="round"/><line x1="-5.225903" y1="0.790475" x2="18.911926" y2="-15.463159" transform="matrix(1.011908 0 0 1.005067 34.761261 41.377861)" fill="none" stroke="#d9dce2" stroke-width="3" stroke-linecap="round" stroke-linejoin="round"/></svg>
